# xmcd
#
# Track frame offsets: 
#        150
#        9387
#        20972
#        30490
#        43677
#        53235
#        62147
#        70327
#        79327
#        88765
#        98317
#        108542
#        120387
#        131587
#        145087
#        153297
#        162465
#        171827
#        181915
#        196915
#        209222
#        222340
#        230085
#        242232
#        254650
#
# Disc length: 3508 seconds
#
# Revision: 0
# Processed by: cddbd v1.5.1PL0 Copyright (c) Steve Scherf et al.
# Submitted via: ExactAudioCopy v0.95a4
#
DISCID=6d0db219
DTITLE=Various Artist - The Sarg Records Anthology - Disc 4
DYEAR=1900
DGENRE=Country
TTITLE0=The Downbeats - Run To Me, Baby
TTITLE1=The Downbeats - I Need Your Love
TTITLE2=The Moods - Let Me Have Your Love
TTITLE3=The Notes - G.I. Blues
TTITLE4=The Downbeats - Oh, Please
TTITLE5=The Downbeats - I Couldn't See
TTITLE6=Dick Fagan and The Scores - I Gotta Learn
TTITLE7=Dick Fagan and The Scores - I Got A Ticket
TTITLE8=The Moods - Rockin' Santa Claus
TTITLE9=Cecil Moore and Ray's Trio - My Money's Gone
TTITLE10=The Medallions - I Love You True
TTITLE11=The Medallions - My Baby's Gone
TTITLE12=Dick Fagan and The Scores - Nothin Really Shakes Me
TTITLE13=The Downbeats - Down The Aisle
TTITLE14=The Downbeats - This Woman I Love
TTITLE15=The Midnighters - Rockin' Romance
TTITLE16=The Midnighters - I Get The Blues
TTITLE17=The Midnighters - Yes Baby, I'm Scared
TTITLE18=The Midnighters - Take A Message, Darling
TTITLE19=Jimmy Farmer and The Notes - Long Black Train
TTITLE20=The Downbeats - You Did Me Wrong
TTITLE21=Cecil Moore and The Notes - Diamond Back
TTITLE22=Adolph Hofner and The Pearl Wranglers - Pipeliner Blues
TTITLE23=Adolph Hofner and The Pearl Wranglers - Milk Cow Blues
TTITLE24=Cecil Moore and The Diamond Backs - Stormy
EXTD=
EXTT0=
EXTT1=
EXTT2=
EXTT3=
EXTT4=
EXTT5=
EXTT6=
EXTT7=
EXTT8=
EXTT9=
EXTT10=
EXTT11=
EXTT12=
EXTT13=
EXTT14=
EXTT15=
EXTT16=
EXTT17=
EXTT18=
EXTT19=
EXTT20=
EXTT21=
EXTT22=
EXTT23=
EXTT24=
PLAYORDER=
